<svg xmlns="http://www.w3.org/2000/svg" viewBox="0 0 305.99 238"><defs><style>.cls-1{isolation:isolate;}.cls-2{fill:#a67c52;}.cls-3{fill:#f2f2f2;}.cls-4{fill:#8c6239;}.cls-5{fill:#ad1883;}.cls-6{fill:#666;opacity:0.69;mix-blend-mode:multiply;}.cls-7{fill:#61045f;}.cls-8{fill:#ccc;}.cls-9{fill:#c6148b;}.cls-10{fill:#2e3192;}.cls-11{fill:#0071bc;}.cls-12{fill:#29abe2;}.cls-13{fill:#fff;}.cls-14{fill:#ff0;}</style></defs><title>House</title><g class="cls-1"><g id="Layer_2" data-name="Layer 2"><g id="Layer_1-2" data-name="Layer 1"><rect class="cls-2" x="26.99" y="223" width="249" height="15"/><rect class="cls-3" x="190.99" width="25" height="40"/><rect class="cls-4" x="129.99" y="223" width="146" height="15"/><polygon class="cls-5" points="61.49 31 0 137 122.98 137 61.49 31"/><rect class="cls-6" x="26.99" y="219" width="249" height="14"/><polygon class="cls-7" points="66.49 32 5 137 127.98 137 66.49 32"/><polygon class="cls-3" points="128.76 123 74.03 30 19.3 123 18.99 123 18.99 229 282.99 229 282.99 123 128.76 123"/><rect class="cls-8" x="129.99" y="101" width="153" height="128"/><polygon class="cls-9" points="305.99 137 122.98 137 60.99 31 244.49 31 305.99 137"/><rect class="cls-10" x="150.99" y="147" width="68" height="36"/><rect class="cls-11" x="150.99" y="152" width="62" height="30"/><path class="cls-3" d="M221,185H149V145h72Zm-68-4h64V149H153Z"/><rect class="cls-10" x="231.99" y="147" width="44" height="36"/><rect class="cls-11" x="231.99" y="152" width="39" height="30"/><path class="cls-3" d="M278,185H230V145h48Zm-44-4h40V149H234Z"/><path class="cls-11" d="M85,140V107s0-18-18-18-18,18-18,18v33Z"/><path class="cls-12" d="M79,140V110.24S79,94,64,94s-15,16.24-15,16.24V140Z"/><path class="cls-13" d="M87,142H47V107c0-.2.23-20,20-20s20,19.8,20,20Zm-36-4H83V107c0-.65-.26-16-16-16s-16,15.35-16,16Z"/><rect class="cls-2" x="43.99" y="160" width="48" height="69"/><rect class="cls-8" x="43.99" y="160" width="8" height="69"/><circle class="cls-14" cx="83.99" cy="197" r="3"/><rect class="cls-3" x="43.99" y="229" width="44" height="4"/><rect class="cls-13" x="35.99" y="233" width="49" height="5"/><polygon class="cls-8" points="87.99 229 87.99 233 84.99 233 84.99 238 91.99 238 91.99 229 87.99 229"/><rect class="cls-13" x="71.99" y="89" width="2" height="49"/><rect class="cls-13" x="59.99" y="89" width="2" height="49"/><rect class="cls-3" x="170.99" y="145" width="2" height="39"/><rect class="cls-3" x="195.99" y="145" width="2" height="39"/><rect class="cls-3" x="252.99" y="146" width="2" height="39"/><rect class="cls-3" x="184.24" y="131.75" width="2" height="67.5" transform="translate(350.74 -19.74) rotate(90)"/><rect class="cls-3" x="253.24" y="143.75" width="2" height="43.5" transform="translate(419.74 -88.74) rotate(90)"/><rect class="cls-13" x="65.74" y="99.25" width="2" height="36.5" transform="translate(184.24 50.76) rotate(90)"/></g></g></g></svg>