<?xml version="1.0" encoding="UTF-8"?>
<svg width="77px" height="54px" viewBox="0 0 77 54" version="1.1" xmlns="http://www.w3.org/2000/svg" xmlns:xlink="http://www.w3.org/1999/xlink">
    <!-- Generator: Sketch 47.1 (45422) - http://www.bohemiancoding.com/sketch -->
    <title>Laptop</title>
    <desc>Created with Sketch.</desc>
    <defs></defs>
    <g id="Welcome" stroke="none" stroke-width="1" fill="none" fill-rule="evenodd">
        <g id="Desktop-HD" transform="translate(-1066.000000, -475.000000)" fill-rule="nonzero">
            <g id="Laptop" transform="translate(1066.000000, 475.000000)">
                <path d="M0,51.8959961 L0,54 L62.0666667,54 L77,36.0775862 L77,0.698275862 C76.919824,0.351083374 76.6480498,0.079978539 76.3,0 L16.3333333,0 L14.3730469,0.698275862 L14.3730469,35.190918 L0,51.8959961 Z" id="Shape" fill="#9F9F9F"></path>
                <path d="M14.4621212,1 L74.5378788,1 C74.7931013,1 75,1.20755012 75,1.46357616 L75,36 L14,36 L14,1.46357616 C14,1.20755012 14.2068987,1 14.4621212,1 Z" id="Shape" fill="#333333"></path>
                <polygon id="Shape" fill="#C7C7C7" points="0 52 14.3972981 35 76 35 61.6027019 52"></polygon>
                <polygon id="Shape" fill="#282828" points="71.1456636 39 63 39 64.8543364 37 73 37"></polygon>
                <polygon id="Shape" fill="#282828" points="17.1340405 39 14 39 15.8659595 37 19 37"></polygon>
                <polygon id="Shape" fill="#282828" points="22.1340405 39 19 39 20.8659595 37 24 37"></polygon>
                <polygon id="Shape" fill="#282828" points="27.1340405 39 24 39 25.8659595 37 29 37"></polygon>
                <polygon id="Shape" fill="#282828" points="31.1340405 39 28 39 29.8659595 37 33 37"></polygon>
                <polygon id="Shape" fill="#282828" points="41.1340405 39 38 39 39.8659595 37 43 37"></polygon>
                <polygon id="Shape" fill="#282828" points="46.1340405 39 43 39 44.8659595 37 48 37"></polygon>
                <polygon id="Shape" fill="#282828" points="51.1340405 39 48 39 49.8659595 37 53 37"></polygon>
                <polygon id="Shape" fill="#282828" points="56.1340405 39 53 39 54.8659595 37 58 37"></polygon>
                <polygon id="Shape" fill="#282828" points="36.1340405 39 33 39 34.8659595 37 38 37"></polygon>
                <polygon id="Shape" fill="#282828" points="61.1340405 39 58 39 59.8659595 37 63 37"></polygon>
                <polygon id="Shape" fill="#282828" points="17.2930057 42 12 42 13.7069943 40 19 40"></polygon>
                <polygon id="Shape" fill="#282828" points="22.1340405 42 19 42 20.8659595 40 24 40"></polygon>
                <polygon id="Shape" fill="#282828" points="27.1340405 42 24 42 25.8659595 40 29 40"></polygon>
                <polygon id="Shape" fill="#282828" points="31.1340405 42 28 42 29.8659595 40 33 40"></polygon>
                <polygon id="Shape" fill="#282828" points="36.1340405 42 33 42 34.8659595 40 38 40"></polygon>
                <polygon id="Shape" fill="#282828" points="46.1340405 42 43 42 44.8659595 40 48 40"></polygon>
                <polygon id="Shape" fill="#282828" points="51.1340405 42 48 42 49.8659595 40 53 40"></polygon>
                <polygon id="Shape" fill="#282828" points="56.1340405 42 53 42 54.8659595 40 58 40"></polygon>
                <polygon id="Shape" fill="#282828" points="61.1340405 42 58 42 59.8659595 40 63 40"></polygon>
                <polygon id="Shape" fill="#282828" points="66.1340405 42 63 42 64.8659595 40 68 40"></polygon>
                <polygon id="Shape" fill="#282828" points="41.1340405 42 38 42 39.8659595 40 43 40"></polygon>
                <polygon id="Shape" fill="#282828" points="42.2226251 45 25 45 26.7773749 43 44 43"></polygon>
                <polygon id="Shape" fill="#282828" points="15.1647896 45 9 45 10.8352104 43 17 43"></polygon>
                <polygon id="Shape" fill="#282828" points="60.3195832 45 57 45 58.6804168 43 62 43"></polygon>
                <polygon id="Shape" fill="#282828" points="64.0285381 45 61 45 61.9714619 44 65 44"></polygon>
                <polygon id="Shape" fill="#282828" points="55.030303 45 52 45 52.969697 44 56 44"></polygon>
                <polygon id="Shape" fill="#282828" points="23.1647896 45 17 45 18.8352104 43 25 43"></polygon>
                <polygon id="Shape" fill="#282828" points="51.1647896 45 45 45 46.8352104 43 53 43"></polygon>
                <path d="M41.6241917,46 L28.7178653,46 C28.2821446,46.024406 27.8732342,46.2099666 27.5770382,46.5176991 L24.1338147,50.4823009 C23.8849069,50.7676991 23.9932279,51 24.3758083,51 L37.2821347,51 C37.7178554,50.975594 38.1267658,50.7900334 38.4229618,50.4823009 L41.8661853,46.5176991 C42.1150931,46.2212389 42.0067721,46 41.6241917,46 Z" id="Shape" fill="#A3A3A3"></path>
                <rect id="Rectangle-path" fill="#A281CB" x="17" y="4" width="56" height="29"></rect>
                <rect id="Rectangle-path" fill="#333333" x="19" y="6" width="25" height="23"></rect>
                <rect id="Rectangle-path" fill="#39B54A" x="20" y="17" width="14" height="1"></rect>
                <rect id="Rectangle-path" fill="#39B54A" x="21" y="15" width="5" height="1"></rect>
                <rect id="Rectangle-path" fill="#FCEE21" x="21" y="10" width="3" height="1"></rect>
                <rect id="Rectangle-path" fill="#29ABE2" x="23" y="10" width="3" height="1"></rect>
                <rect id="Rectangle-path" fill="#39B54A" x="26" y="10" width="8" height="1"></rect>
                <rect id="Rectangle-path" fill="#39B54A" x="35" y="17" width="8" height="1"></rect>
                <rect id="Rectangle-path" fill="#39B54A" x="21" y="12" width="11" height="1"></rect>
                <rect id="Rectangle-path" fill="#39B54A" x="33" y="12" width="4" height="1"></rect>
                <rect id="Rectangle-path" fill="#39B54A" x="38" y="12" width="4" height="1"></rect>
                <rect id="Rectangle-path" fill="#39B54A" x="21" y="14" width="13" height="1"></rect>
                <rect id="Rectangle-path" fill="#39B54A" x="35" y="14" width="8" height="1"></rect>
                <rect id="Rectangle-path" fill="#333333" x="45" y="8" width="25" height="19"></rect>
                <rect id="Rectangle-path" fill="#FFFFFF" x="47" y="12" width="5" height="1"></rect>
                <rect id="Rectangle-path" fill="#FFFFFF" x="47" y="13" width="5" height="1"></rect>
                <rect id="Rectangle-path" fill="#FFFFFF" x="47" y="15" width="7" height="1"></rect>
                <rect id="Rectangle-path" fill="#FFFFFF" x="47" y="17" width="7" height="1"></rect>
                <rect id="Rectangle-path" fill="#FFFFFF" x="55" y="17" width="7" height="1"></rect>
                <rect id="Rectangle-path" fill="#C1272D" x="47" y="19" width="5" height="1"></rect>
                <rect id="Rectangle-path" fill="#FFFFFF" x="53" y="19" width="3" height="1"></rect>
                <rect id="Rectangle-path" fill="#FFFFFF" x="55" y="19" width="6" height="1"></rect>
                <rect id="Rectangle-path" fill="#FFFFFF" x="47" y="20" width="2" height="1"></rect>
                <rect id="Rectangle-path" fill="#FFFFFF" x="50" y="20" width="7" height="1"></rect>
                <rect id="Rectangle-path" fill="#4A3379" x="19" y="6" width="25" height="2"></rect>
                <rect id="Rectangle-path" fill="#4A3379" x="45" y="8" width="25" height="2"></rect>
            </g>
        </g>
    </g>
</svg>