<svg xmlns="http://www.w3.org/2000/svg" xmlns:xlink="http://www.w3.org/1999/xlink" viewBox="0 0 323 195"><defs><style>.cls-1{isolation:isolate;}.cls-2{fill:url(#linear-gradient);}.cls-3{fill:#61045f;}.cls-4{fill:#d3c494;}.cls-5{fill:#f4e8be;}.cls-6{opacity:0.6;}.cls-6,.cls-9{mix-blend-mode:multiply;}.cls-7{fill:#333;}.cls-8{fill:gray;}.cls-9{opacity:0.61;}</style><linearGradient id="linear-gradient" x1="161.5" y1="2" x2="161.5" y2="193" gradientUnits="userSpaceOnUse"><stop offset="0.62" stop-color="#aa076b"/><stop offset="0.78" stop-color="#aa076b"/><stop offset="1" stop-color="#61045f"/></linearGradient></defs><title>Notebook</title><g class="cls-1"><g id="Layer_2" data-name="Layer 2"><g id="Layer_1-2" data-name="Layer 1"><rect class="cls-2" y="2" width="323" height="191" rx="5.5" ry="5.5"/><rect class="cls-3" x="152" width="20" height="195"/><rect class="cls-4" x="10.71" y="11.61" width="301.29" height="171.78" rx="5.5" ry="5.5"/><rect class="cls-5" x="18.71" y="12" width="285.29" height="171" rx="5.5" ry="5.5"/><g class="cls-6"><rect class="cls-7" x="170" y="28" width="57.84" height="3.61"/><rect class="cls-7" x="235.3" y="28" width="34.51" height="3.61"/><rect class="cls-7" x="170" y="39.39" width="28.92" height="3.61"/><rect class="cls-7" x="204.51" y="39.39" width="44.78" height="3.61"/><rect class="cls-7" x="253.96" y="39.39" width="40.11" height="3.61"/><rect class="cls-7" x="170" y="50.39" width="13.99" height="3.61"/><rect class="cls-7" x="190.52" y="50.39" width="49.44" height="3.61"/><rect class="cls-7" x="245.56" y="50.39" width="15.86" height="3.61"/><rect class="cls-7" x="267.01" y="50.39" width="27.99" height="3.61"/><rect class="cls-7" x="193" y="61" width="57.84" height="3.61"/><rect class="cls-7" x="258.3" y="61" width="34.51" height="3.61"/><rect class="cls-7" x="170.3" y="61" width="18.7" height="4"/><rect class="cls-8" x="170" y="76" width="60" height="30"/><rect class="cls-7" x="236.3" y="76" width="34.51" height="3.61"/><rect class="cls-7" x="236.3" y="84" width="22.7" height="3.61"/></g><path class="cls-4" d="M162,183,40,190.15a5.57,5.57,0,0,1-6-5.63v-174a5.57,5.57,0,0,1,6-5.63L162,12Z"/><g class="cls-9"><polygon class="cls-7" points="85.42 69.2 135.26 70.12 135.26 66.44 85.42 65.4 85.42 69.2"/><polygon class="cls-7" points="47.1 68.49 78.75 69.08 78.75 65.26 47.1 64.6 47.1 68.49"/><polygon class="cls-7" points="131.36 37.77 155.21 38.73 155.21 35.1 131.36 34.09 131.36 37.77"/><polygon class="cls-7" points="87.91 36.03 126.65 37.58 126.65 33.88 87.91 32.23 87.91 36.03"/><polygon class="cls-7" points="47.1 34.39 83.76 35.86 83.76 32.06 47.1 30.5 47.1 34.39"/><polygon class="cls-7" points="144.53 48.96 155.96 49.34 155.96 45.71 144.53 45.31 144.53 48.96"/><polygon class="cls-7" points="96.96 47.4 139.13 48.78 139.13 45.12 96.96 43.63 96.96 47.4"/><polygon class="cls-7" points="77.91 46.77 92.04 47.24 92.04 43.45 77.91 42.95 77.91 46.77"/><polygon class="cls-7" points="47.1 45.76 72.86 46.61 72.86 42.77 47.1 41.87 47.1 45.76"/><polygon class="cls-7" points="85.42 57.91 135.26 59.19 135.26 55.51 85.42 54.1 85.42 57.91"/><polygon class="cls-7" points="47.1 56.92 78.75 57.73 78.75 53.92 47.1 53.02 47.1 56.92"/><polygon class="cls-7" points="138.58 59.67 153.94 60.06 153.94 56.04 138.58 55.61 138.58 59.67"/><polygon class="cls-7" points="144.53 99.02 155.96 99.01 155.96 95.38 144.53 95.36 144.53 99.02"/><polygon class="cls-7" points="96.96 99.07 139.13 99.02 139.13 95.36 96.96 95.3 96.96 99.07"/><polygon class="cls-7" points="77.91 99.09 92.04 99.07 92.04 95.29 77.91 95.27 77.91 99.09"/><polygon class="cls-7" points="47.1 99.12 72.86 99.09 72.86 95.26 47.1 95.22 47.1 99.12"/><polygon class="cls-7" points="85.42 110.09 135.26 109.68 135.26 106 85.42 106.28 85.42 110.09"/><polygon class="cls-7" points="47.1 110.4 78.75 110.14 78.75 106.32 47.1 106.5 47.1 110.4"/><polygon class="cls-7" points="138.58 110.05 153.94 109.92 153.94 105.89 138.58 105.98 138.58 110.05"/><polygon class="cls-7" points="85.42 121.3 135.26 120.53 135.26 116.85 85.42 117.5 85.42 121.3"/><polygon class="cls-7" points="47.1 121.89 78.75 121.4 78.75 117.58 47.1 118 47.1 121.89"/><polygon class="cls-7" points="138.58 120.87 153.94 120.63 153.94 116.61 138.58 116.81 138.58 120.87"/><polygon class="cls-7" points="131.36 131.66 155.21 131.11 155.21 127.49 131.36 127.97 131.36 131.66"/><polygon class="cls-7" points="87.91 132.66 126.65 131.77 126.65 128.07 87.91 128.86 87.91 132.66"/><polygon class="cls-7" points="47.1 133.59 83.76 132.75 83.76 128.95 47.1 129.7 47.1 133.59"/><polygon class="cls-7" points="85.42 143.93 135.26 142.42 135.26 138.74 85.42 140.13 85.42 143.93"/><polygon class="cls-7" points="47.1 145.08 78.75 144.13 78.75 140.31 47.1 141.19 47.1 145.08"/></g></g></g></g></svg>