<?xml version="1.0" encoding="UTF-8"?>
<svg width="89px" height="54px" viewBox="0 0 89 54" version="1.1" xmlns="http://www.w3.org/2000/svg" xmlns:xlink="http://www.w3.org/1999/xlink">
    <!-- Generator: Sketch 47.1 (45422) - http://www.bohemiancoding.com/sketch -->
    <title>Notebook</title>
    <desc>Created with Sketch.</desc>
    <defs>
        <linearGradient x1="50%" y1="62%" x2="50%" y2="100%" id="linearGradient-1">
            <stop stop-color="#B594D7" offset="0%"></stop>
            <stop stop-color="#7A57B2" offset="61.453683%"></stop>
            <stop stop-color="#33225E" offset="100%"></stop>
        </linearGradient>
    </defs>
    <g id="Welcome" stroke="none" stroke-width="1" fill="none" fill-rule="evenodd">
        <g id="Desktop-HD" transform="translate(-969.000000, -561.000000)" fill-rule="nonzero">
            <g id="Notebook" transform="translate(969.000000, 561.000000)">
                <rect id="Rectangle-path" fill="url(#linearGradient-1)" x="0" y="1" width="89" height="53" rx="5.5"></rect>
                <rect id="Rectangle-path" fill="#4A3379" x="42" y="0" width="6" height="54"></rect>
                <rect id="Rectangle-path" fill="#D3C494" x="3" y="3" width="83" height="48" rx="5.5"></rect>
                <rect id="Rectangle-path" fill="#F4E8BE" x="5" y="3" width="79" height="47" rx="5.5"></rect>
                <g id="Group" opacity="0.6" style="mix-blend-mode: multiply;" transform="translate(47.000000, 8.000000)">
                    <rect id="Rectangle-path" fill="#333333" x="0" y="0" width="15.73248" height="1.01820513"></rect>
                    <rect id="Rectangle-path" fill="#333333" x="17.7616" y="0" width="9.38672" height="1.01820513"></rect>
                    <rect id="Rectangle-path" fill="#333333" x="0" y="3.2125641" width="7.86624" height="1.01820513"></rect>
                    <rect id="Rectangle-path" fill="#333333" x="9.38672" y="3.2125641" width="12.18016" height="1.01820513"></rect>
                    <rect id="Rectangle-path" fill="#333333" x="22.83712" y="3.2125641" width="10.90992" height="1.01820513"></rect>
                    <rect id="Rectangle-path" fill="#333333" x="0" y="6.31512821" width="3.80528" height="1.01820513"></rect>
                    <rect id="Rectangle-path" fill="#333333" x="5.58144" y="6.31512821" width="13.44768" height="1.01820513"></rect>
                    <rect id="Rectangle-path" fill="#333333" x="20.55232" y="6.31512821" width="4.31392" height="1.01820513"></rect>
                    <rect id="Rectangle-path" fill="#333333" x="26.38672" y="6.31512821" width="7.61328" height="1.01820513"></rect>
                    <rect id="Rectangle-path" fill="#333333" x="6.256" y="9.30769231" width="15.73248" height="1.01820513"></rect>
                    <rect id="Rectangle-path" fill="#333333" x="24.0176" y="9.30769231" width="9.38672" height="1.01820513"></rect>
                    <rect id="Rectangle-path" fill="#333333" x="0.0816" y="9.30769231" width="5.0864" height="1.12820513"></rect>
                    <rect id="Rectangle-path" fill="#808080" x="0" y="13.5384615" width="16.32" height="8.46153846"></rect>
                    <rect id="Rectangle-path" fill="#333333" x="18.0336" y="13.5384615" width="9.38672" height="1.01820513"></rect>
                    <rect id="Rectangle-path" fill="#333333" x="18.0336" y="15.7948718" width="6.1744" height="1.01820513"></rect>
                </g>
                <path d="M44,50.0274485 L10.6407627,51.995409 C10.214003,52.028712 9.79301969,51.8797125 9.48087823,51.5848887 C9.16873677,51.2900648 8.99425311,50.8766338 9.0001445,50.4458121 L9.0001445,2.55418786 C8.99425311,2.12336623 9.16873677,1.70993519 9.48087823,1.41511132 C9.79301969,1.12028746 10.214003,0.971287965 10.6407627,1.00459105 L44,2.9615419 L44,50.0274485 Z" id="Shape" fill="#D3C494"></path>
                <g id="Group" opacity="0.61" style="mix-blend-mode: multiply;" transform="translate(13.000000, 8.000000)" fill="#333333">
                    <polygon id="Shape" points="10.5743119 10.8137931 24.2917431 11.0675862 24.2917431 10.0524138 10.5743119 9.76551724"></polygon>
                    <polygon id="Shape" points="0.0275229358 10.617931 8.73853211 10.7806897 8.73853211 9.72689655 0.0275229358 9.54482759"></polygon>
                    <polygon id="Shape" points="23.2183486 2.14344828 29.7825688 2.40827586 29.7825688 1.40689655 23.2183486 1.12827586"></polygon>
                    <polygon id="Shape" points="11.259633 1.66344828 21.9220183 2.09103448 21.9220183 1.07034483 11.259633 0.615172414"></polygon>
                    <polygon id="Shape" points="0.0275229358 1.21103448 10.1174312 1.61655172 10.1174312 0.568275862 0.0275229358 0.137931034"></polygon>
                    <polygon id="Shape" points="26.8431193 5.23034483 29.9889908 5.33517241 29.9889908 4.3337931 26.8431193 4.22344828"></polygon>
                    <polygon id="Shape" points="13.7504587 4.8 25.3568807 5.18068966 25.3568807 4.17103448 13.7504587 3.76"></polygon>
                    <polygon id="Shape" points="8.50733945 4.6262069 12.3963303 4.75586207 12.3963303 3.71034483 8.50733945 3.57241379"></polygon>
                    <polygon id="Shape" points="0.0275229358 4.34758621 7.11743119 4.58206897 7.11743119 3.52275862 0.0275229358 3.27448276"></polygon>
                    <polygon id="Shape" points="10.5743119 7.69931034 24.2917431 8.05241379 24.2917431 7.03724138 10.5743119 6.64827586"></polygon>
                    <polygon id="Shape" points="0.0275229358 7.4262069 8.73853211 7.64965517 8.73853211 6.59862069 0.0275229358 6.35034483"></polygon>
                    <polygon id="Shape" points="25.2055046 8.18482759 29.4330275 8.29241379 29.4330275 7.18344828 25.2055046 7.06482759"></polygon>
                    <polygon id="Shape" points="26.8431193 19.04 29.9889908 19.0372414 29.9889908 18.0358621 26.8431193 18.0303448"></polygon>
                    <polygon id="Shape" points="13.7504587 19.0537931 25.3568807 19.04 25.3568807 18.0303448 13.7504587 18.0137931"></polygon>
                    <polygon id="Shape" points="8.50733945 19.0593103 12.3963303 19.0537931 12.3963303 18.0110345 8.50733945 18.0055172"></polygon>
                    <polygon id="Shape" points="0.0275229358 19.0675862 7.11743119 19.0593103 7.11743119 18.0027586 0.0275229358 17.9917241"></polygon>
                    <polygon id="Shape" points="10.5743119 22.0937931 24.2917431 21.9806897 24.2917431 20.9655172 10.5743119 21.0427586"></polygon>
                    <polygon id="Shape" points="0.0275229358 22.1793103 8.73853211 22.1075862 8.73853211 21.0537931 0.0275229358 21.1034483"></polygon>
                    <polygon id="Shape" points="25.2055046 22.0827586 29.4330275 22.0468966 29.4330275 20.9351724 25.2055046 20.96"></polygon>
                    <polygon id="Shape" points="10.5743119 25.1862069 24.2917431 24.9737931 24.2917431 23.9586207 10.5743119 24.137931"></polygon>
                    <polygon id="Shape" points="0.0275229358 25.3489655 8.73853211 25.2137931 8.73853211 24.16 0.0275229358 24.2758621"></polygon>
                    <polygon id="Shape" points="25.2055046 25.0675862 29.4330275 25.0013793 29.4330275 23.8924138 25.2055046 23.9475862"></polygon>
                    <polygon id="Shape" points="23.2183486 28.0441379 29.7825688 27.8924138 29.7825688 26.8937931 23.2183486 27.0262069"></polygon>
                    <polygon id="Shape" points="11.259633 28.32 21.9220183 28.0744828 21.9220183 27.0537931 11.259633 27.2717241"></polygon>
                    <polygon id="Shape" points="0.0275229358 28.5765517 10.1174312 28.3448276 10.1174312 27.2965517 0.0275229358 27.5034483"></polygon>
                    <polygon id="Shape" points="10.5743119 31.4289655 24.2917431 31.0124138 24.2917431 29.9972414 10.5743119 30.3806897"></polygon>
                    <polygon id="Shape" points="0.0275229358 31.7462069 8.73853211 31.4841379 8.73853211 30.4303448 0.0275229358 30.6731034"></polygon>
                </g>
            </g>
        </g>
    </g>
</svg>