<svg xmlns="http://www.w3.org/2000/svg" viewBox="0 0 306.01 298.22"><defs><style>.cls-1{isolation:isolate;}.cls-2{fill:#f2f2f2;}.cls-3{fill:#c6148b;}.cls-4{fill:#fff;}.cls-5{fill:#999;}.cls-6{fill:#333;}.cls-7{fill:#61045f;}.cls-8{fill:gray;mix-blend-mode:multiply;}</style></defs><title>Resume</title><g class="cls-1"><g id="Layer_2" data-name="Layer 2"><g id="Layer_1-2" data-name="Layer 1"><polygon class="cls-2" points="188 252.59 0.25 252.59 0.25 9.63 161.79 9.63 188 29.58 188 252.59"/><polygon class="cls-3" points="188 44.63 0 44.63 0 9.63 161.88 9.63 188 29.63 188 44.63"/><rect class="cls-4" x="10" y="18.62" width="61" height="6.95"/><rect class="cls-4" x="10" y="29.67" width="38" height="6.95"/><rect class="cls-4" x="140" y="19.01" width="32" height="2.11"/><rect class="cls-4" x="146.91" y="24.52" width="25.09" height="2.11"/><rect class="cls-4" x="142.59" y="30.02" width="29.41" height="2.11"/><rect class="cls-4" x="152.95" y="35.52" width="19.05" height="2.11"/><rect class="cls-5" x="15" y="57.62" width="61" height="6.95"/><rect class="cls-6" x="15" y="71.62" width="43.49" height="2.54"/><rect class="cls-6" x="64.1" y="71.62" width="25.96" height="2.54"/><rect class="cls-6" x="15" y="79.63" width="21.75" height="2.54"/><rect class="cls-6" x="40.96" y="79.63" width="33.67" height="2.54"/><rect class="cls-6" x="78.13" y="79.63" width="30.16" height="2.54"/><rect class="cls-6" x="15" y="87.36" width="10.52" height="2.54"/><rect class="cls-6" x="30.43" y="87.36" width="37.18" height="2.54"/><rect class="cls-6" x="71.82" y="87.36" width="11.93" height="2.54"/><rect class="cls-6" x="87.96" y="87.36" width="21.04" height="2.54"/><rect class="cls-6" x="32.3" y="94.81" width="43.49" height="2.54"/><rect class="cls-6" x="81.4" y="94.81" width="25.96" height="2.54"/><rect class="cls-6" x="15.22" y="94.81" width="14.06" height="2.81"/><rect class="cls-5" x="15" y="121.62" width="61" height="6.95"/><rect class="cls-6" x="15" y="150.62" width="43.49" height="2.54"/><rect class="cls-6" x="64.1" y="150.62" width="25.96" height="2.54"/><rect class="cls-6" x="15" y="142.63" width="21.75" height="2.54"/><rect class="cls-6" x="40.96" y="142.63" width="33.67" height="2.54"/><rect class="cls-6" x="78.13" y="142.63" width="30.16" height="2.54"/><rect class="cls-6" x="15" y="134.36" width="10.52" height="2.54"/><rect class="cls-6" x="30.43" y="134.36" width="37.18" height="2.54"/><rect class="cls-6" x="71.82" y="134.36" width="11.93" height="2.54"/><rect class="cls-6" x="32.3" y="157.81" width="43.49" height="2.54"/><rect class="cls-6" x="81.4" y="157.81" width="25.96" height="2.54"/><rect class="cls-6" x="15.22" y="157.81" width="14.06" height="2.81"/><rect class="cls-5" x="14" y="184.62" width="61" height="6.95"/><rect class="cls-6" x="14" y="198.62" width="43.49" height="2.54"/><rect class="cls-6" x="14" y="206.63" width="21.75" height="2.54"/><rect class="cls-6" x="39.96" y="206.63" width="33.67" height="2.54"/><rect class="cls-6" x="14" y="214.36" width="10.52" height="2.54"/><rect class="cls-6" x="29.43" y="214.36" width="37.18" height="2.54"/><rect class="cls-6" x="31.3" y="221.81" width="43.49" height="2.54"/><rect class="cls-6" x="14.22" y="221.81" width="14.06" height="2.81"/><rect class="cls-5" x="100" y="184.62" width="61" height="6.95"/><rect class="cls-6" x="100" y="198.62" width="43.49" height="2.54"/><rect class="cls-6" x="100" y="206.63" width="21.75" height="2.54"/><rect class="cls-6" x="125.96" y="206.63" width="33.67" height="2.54"/><rect class="cls-6" x="100" y="214.36" width="10.52" height="2.54"/><rect class="cls-6" x="115.43" y="214.36" width="37.18" height="2.54"/><rect class="cls-6" x="117.3" y="221.81" width="43.49" height="2.54"/><rect class="cls-6" x="100.22" y="221.81" width="14.06" height="2.81"/><polygon class="cls-7" points="162 9.63 188 29.63 162 29.63 162 9.63"/><polygon class="cls-8" points="147 9.63 147 251.63 44 221.79 95.5 9.63 147 9.63"/><polygon class="cls-2" points="215.89 298.22 44.15 222.35 142.34 0.1 290.1 65.38 306.01 94.23 215.89 298.22"/><polygon class="cls-3" points="299.93 107.99 127.97 32.02 142.11 0 290.18 65.42 305.99 94.27 299.93 107.99"/><rect class="cls-4" x="143.61" y="24.3" width="61" height="6.95" transform="translate(26.08 -67.99) rotate(23.84)"/><rect class="cls-4" x="140.13" y="29.76" width="38" height="6.95" transform="translate(27 -61.47) rotate(23.84)"/><rect class="cls-4" x="264.59" y="71.54" width="32" height="2.11" transform="translate(53.27 -107.2) rotate(23.84)"/><rect class="cls-4" x="268.97" y="77.97" width="25.09" height="2.11" transform="translate(55.94 -107.03) rotate(23.84)"/><rect class="cls-4" x="262.62" y="82.13" width="29.41" height="2.11" transform="translate(57.27 -104.97) rotate(23.84)"/><rect class="cls-4" x="270.31" y="89.25" width="19.05" height="2.11" transform="translate(60.36 -105.38) rotate(23.84)"/><rect class="cls-5" x="132.43" y="62" width="61" height="6.95" transform="translate(40.35 -60.26) rotate(23.84)"/><rect class="cls-6" x="128.41" y="71.45" width="43.49" height="2.54" transform="translate(42.19 -54.48) rotate(23.84)"/><rect class="cls-6" x="174.07" y="87.75" width="25.96" height="2.54" transform="translate(51.93 -68) rotate(23.84)"/><rect class="cls-6" x="126.1" y="74.38" width="21.75" height="2.54" transform="translate(42.25 -48.9) rotate(23.84)"/><rect class="cls-6" x="149.34" y="87.28" width="33.67" height="2.54" transform="translate(49.96 -59.6) rotate(23.84)"/><rect class="cls-6" x="183.49" y="101.59" width="30.16" height="2.54" transform="translate(58.5 -71.47) rotate(23.84)"/><rect class="cls-6" x="123.46" y="79.18" width="10.52" height="2.54" transform="translate(43.49 -45.15) rotate(23.84)"/><rect class="cls-6" x="136.44" y="90.81" width="37.18" height="2.54" transform="translate(50.43 -54.79) rotate(23.84)"/><rect class="cls-6" x="175.37" y="102.43" width="11.93" height="2.54" transform="translate(57.37 -64.43) rotate(23.84)"/><rect class="cls-6" x="189.74" y="110.79" width="21.04" height="2.54" transform="translate(62.36 -71.37) rotate(23.84)"/><rect class="cls-6" x="134.86" y="99.65" width="43.49" height="2.54" transform="translate(54.14 -54.68) rotate(23.84)"/><rect class="cls-6" x="180.52" y="115.95" width="25.96" height="2.54" transform="translate(63.87 -68.2) rotate(23.84)"/><rect class="cls-6" x="120.44" y="86.8" width="14.06" height="2.81" transform="translate(46.52 -43.99) rotate(23.84)"/><rect class="cls-5" x="106.56" y="120.54" width="61" height="6.95" transform="translate(61.81 -44.81) rotate(23.84)"/><rect class="cls-6" x="96.48" y="143.72" width="43.49" height="2.54" transform="translate(68.67 -35.41) rotate(23.84)"/><rect class="cls-6" x="142.15" y="160.02" width="25.96" height="2.54" transform="translate(78.41 -48.93) rotate(23.84)"/><rect class="cls-6" x="100.64" y="132.01" width="21.75" height="2.54" transform="translate(63.37 -33.7) rotate(23.84)"/><rect class="cls-6" x="123.88" y="144.9" width="33.67" height="2.54" transform="translate(71.07 -44.4) rotate(23.84)"/><rect class="cls-6" x="158.03" y="159.22" width="30.16" height="2.54" transform="translate(79.62 -56.27) rotate(23.84)"/><rect class="cls-6" x="104.46" y="122.17" width="10.52" height="2.54" transform="translate(59.24 -33.81) rotate(23.84)"/><rect class="cls-6" x="117.44" y="133.8" width="37.18" height="2.54" transform="translate(66.18 -43.45) rotate(23.84)"/><rect class="cls-6" x="156.38" y="145.42" width="11.93" height="2.54" transform="translate(73.12 -53.09) rotate(23.84)"/><rect class="cls-6" x="109.4" y="157.28" width="43.49" height="2.54" transform="translate(75.26 -39.47) rotate(23.84)"/><rect class="cls-6" x="155.06" y="173.58" width="25.96" height="2.54" transform="translate(84.99 -52.99) rotate(23.84)"/><rect class="cls-6" x="94.98" y="144.42" width="14.06" height="2.81" transform="translate(67.63 -28.79) rotate(23.84)"/><rect class="cls-5" x="80.19" y="177.76" width="61" height="6.95" transform="translate(82.68 -29.27) rotate(23.84)"/><rect class="cls-6" x="76.17" y="187.22" width="43.49" height="2.54" transform="translate(84.52 -23.49) rotate(23.84)"/><rect class="cls-6" x="73.87" y="190.14" width="21.75" height="2.54" transform="translate(84.58 -17.92) rotate(23.84)"/><rect class="cls-6" x="97.1" y="203.04" width="33.67" height="2.54" transform="translate(92.28 -28.62) rotate(23.84)"/><rect class="cls-6" x="71.22" y="194.95" width="10.52" height="2.54" transform="translate(85.82 -14.17) rotate(23.84)"/><rect class="cls-6" x="84.2" y="206.57" width="37.18" height="2.54" transform="translate(92.76 -23.81) rotate(23.84)"/><rect class="cls-6" x="82.62" y="215.42" width="43.49" height="2.54" transform="translate(96.47 -23.7) rotate(23.84)"/><rect class="cls-6" x="68.21" y="202.56" width="14.06" height="2.81" transform="translate(88.84 -13.01) rotate(23.84)"/><rect class="cls-5" x="158.86" y="212.51" width="61" height="6.95" transform="translate(103.43 -58.1) rotate(23.84)"/><rect class="cls-6" x="154.84" y="221.97" width="43.49" height="2.54" transform="translate(105.27 -52.32) rotate(23.84)"/><rect class="cls-6" x="152.53" y="224.9" width="21.75" height="2.54" transform="translate(105.33 -46.74) rotate(23.84)"/><rect class="cls-6" x="175.76" y="237.8" width="33.67" height="2.54" transform="translate(113.04 -57.44) rotate(23.84)"/><rect class="cls-6" x="149.89" y="229.7" width="10.52" height="2.54" transform="translate(106.57 -43) rotate(23.84)"/><rect class="cls-6" x="162.87" y="241.32" width="37.18" height="2.54" transform="translate(113.51 -52.64) rotate(23.84)"/><rect class="cls-6" x="161.29" y="250.17" width="43.49" height="2.54" transform="translate(117.22 -52.52) rotate(23.84)"/><rect class="cls-6" x="146.87" y="237.32" width="14.06" height="2.81" transform="translate(109.6 -41.83) rotate(23.84)"/><polygon class="cls-7" points="290.29 65.47 305.99 94.27 282.21 83.76 290.29 65.47"/></g></g></g></svg>