<?xml version="1.0" encoding="UTF-8"?>
<svg width="55px" height="54px" viewBox="0 0 55 54" version="1.1" xmlns="http://www.w3.org/2000/svg" xmlns:xlink="http://www.w3.org/1999/xlink">
    <!-- Generator: Sketch 47.1 (45422) - http://www.bohemiancoding.com/sketch -->
    <title>Resume</title>
    <desc>Created with Sketch.</desc>
    <defs></defs>
    <g id="Welcome" stroke="none" stroke-width="1" fill="none" fill-rule="evenodd">
        <g id="Desktop-HD" transform="translate(-1126.000000, -372.000000)" fill-rule="nonzero">
            <g id="Resume" transform="translate(1126.000000, 372.000000)">
                <polygon id="Shape" fill="#F2F2F2" points="33.8507463 45.1343284 0 45.1343284 0 1.6119403 29.1251641 1.6119403 33.8507463 5.18566289"></polygon>
                <polygon id="Shape" fill="#A281CB" points="33.8507463 8.05970149 0 8.05970149 0 1.6119403 29.1476532 1.6119403 33.8507463 5.29637527"></polygon>
                <rect id="Rectangle-path" fill="#FFFFFF" x="1.6119403" y="3.2238806" width="10.4776119" height="1"></rect>
                <rect id="Rectangle-path" fill="#FFFFFF" x="1.6119403" y="5.64179104" width="7.25373134" height="1"></rect>
                <rect id="Rectangle-path" fill="#FFFFFF" x="24.9850746" y="3.2238806" width="5.64179104" height="1"></rect>
                <rect id="Rectangle-path" fill="#FFFFFF" x="26.5970149" y="4.02985075" width="4.8358209" height="1"></rect>
                <rect id="Rectangle-path" fill="#FFFFFF" x="24.9850746" y="5.64179104" width="5.64179104" height="1"></rect>
                <rect id="Rectangle-path" fill="#FFFFFF" x="27.4029851" y="6.44776119" width="3.2238806" height="1"></rect>
                <rect id="Rectangle-path" fill="#999999" x="3.2238806" y="10.4776119" width="10.4776119" height="1"></rect>
                <rect id="Rectangle-path" fill="#333333" x="3.2238806" y="12.8955224" width="8.05970149" height="1"></rect>
                <rect id="Rectangle-path" fill="#333333" x="11.2835821" y="12.8955224" width="4.8358209" height="1"></rect>
                <rect id="Rectangle-path" fill="#333333" x="3.2238806" y="14.5074627" width="4.02985075" height="1"></rect>
                <rect id="Rectangle-path" fill="#333333" x="7.25373134" y="14.5074627" width="5.64179104" height="1"></rect>
                <rect id="Rectangle-path" fill="#333333" x="14.5074627" y="14.5074627" width="5.64179104" height="1"></rect>
                <rect id="Rectangle-path" fill="#333333" x="3.2238806" y="16.119403" width="1.6119403" height="1"></rect>
                <rect id="Rectangle-path" fill="#333333" x="5.64179104" y="16.119403" width="6.44776119" height="1"></rect>
                <rect id="Rectangle-path" fill="#333333" x="12.8955224" y="16.119403" width="2.41791045" height="1"></rect>
                <rect id="Rectangle-path" fill="#333333" x="16.119403" y="16.119403" width="3.2238806" height="1"></rect>
                <rect id="Rectangle-path" fill="#333333" x="5.64179104" y="16.9253731" width="8.05970149" height="1"></rect>
                <rect id="Rectangle-path" fill="#333333" x="14.5074627" y="16.9253731" width="4.8358209" height="1"></rect>
                <rect id="Rectangle-path" fill="#333333" x="3.2238806" y="16.9253731" width="2.41791045" height="1"></rect>
                <rect id="Rectangle-path" fill="#999999" x="3.2238806" y="21.761194" width="10.4776119" height="1"></rect>
                <rect id="Rectangle-path" fill="#333333" x="3.2238806" y="27.4029851" width="8.05970149" height="1"></rect>
                <rect id="Rectangle-path" fill="#333333" x="11.2835821" y="27.4029851" width="4.8358209" height="1"></rect>
                <rect id="Rectangle-path" fill="#333333" x="3.2238806" y="25.7910448" width="4.02985075" height="1"></rect>
                <rect id="Rectangle-path" fill="#333333" x="7.25373134" y="25.7910448" width="5.64179104" height="1"></rect>
                <rect id="Rectangle-path" fill="#333333" x="14.5074627" y="25.7910448" width="5.64179104" height="1"></rect>
                <rect id="Rectangle-path" fill="#333333" x="3.2238806" y="24.1791045" width="1.6119403" height="1"></rect>
                <rect id="Rectangle-path" fill="#333333" x="5.64179104" y="24.1791045" width="6.44776119" height="1"></rect>
                <rect id="Rectangle-path" fill="#333333" x="12.8955224" y="24.1791045" width="2.41791045" height="1"></rect>
                <rect id="Rectangle-path" fill="#333333" x="5.64179104" y="28.2089552" width="8.05970149" height="1"></rect>
                <rect id="Rectangle-path" fill="#333333" x="14.5074627" y="28.2089552" width="4.8358209" height="1"></rect>
                <rect id="Rectangle-path" fill="#333333" x="3.2238806" y="28.2089552" width="2.41791045" height="1"></rect>
                <rect id="Rectangle-path" fill="#999999" x="2.41791045" y="33.0447761" width="10.4776119" height="1"></rect>
                <rect id="Rectangle-path" fill="#333333" x="2.41791045" y="35.4626866" width="8.05970149" height="1"></rect>
                <rect id="Rectangle-path" fill="#333333" x="2.41791045" y="37.0746269" width="4.02985075" height="1"></rect>
                <rect id="Rectangle-path" fill="#333333" x="7.25373134" y="37.0746269" width="5.64179104" height="1"></rect>
                <rect id="Rectangle-path" fill="#333333" x="2.41791045" y="38.6865672" width="1.6119403" height="1"></rect>
                <rect id="Rectangle-path" fill="#333333" x="5.64179104" y="38.6865672" width="6.44776119" height="1"></rect>
                <rect id="Rectangle-path" fill="#333333" x="5.64179104" y="40.2985075" width="8.05970149" height="1"></rect>
                <rect id="Rectangle-path" fill="#333333" x="2.41791045" y="40.2985075" width="2.41791045" height="1"></rect>
                <rect id="Rectangle-path" fill="#999999" x="17.7313433" y="33.0447761" width="10.4776119" height="1"></rect>
                <rect id="Rectangle-path" fill="#333333" x="17.7313433" y="35.4626866" width="8.05970149" height="1"></rect>
                <rect id="Rectangle-path" fill="#333333" x="17.7313433" y="37.0746269" width="4.02985075" height="1"></rect>
                <rect id="Rectangle-path" fill="#333333" x="22.5671642" y="37.0746269" width="5.64179104" height="1"></rect>
                <rect id="Rectangle-path" fill="#333333" x="17.7313433" y="38.6865672" width="1.6119403" height="1"></rect>
                <rect id="Rectangle-path" fill="#333333" x="20.9552239" y="38.6865672" width="6.44776119" height="1"></rect>
                <rect id="Rectangle-path" fill="#333333" x="20.9552239" y="40.2985075" width="8.05970149" height="1"></rect>
                <rect id="Rectangle-path" fill="#333333" x="17.7313433" y="40.2985075" width="2.41791045" height="1"></rect>
                <polygon id="Shape" fill="#61045F" points="29.0149254 1.6119403 33.8507463 4.8358209 29.0149254 4.8358209"></polygon>
                <polygon id="Shape" fill="#808080" style="mix-blend-mode: multiply;" points="26.5970149 1.6119403 26.5970149 45.1343284 8.05970149 39.7677661 17.3283582 1.6119403"></polygon>
                <polygon id="Shape" fill="#F2F2F2" points="38.7180845 54 8.05970149 40.2572789 25.5882134 0 51.9657764 11.8245002 54.8059701 17.0502482"></polygon>
                <polygon id="Shape" fill="#A281CB" points="53.7359612 19.3432836 23.3731343 5.73545643 25.8698218 0 52.0144123 11.7180999 54.8059701 16.8857426"></polygon>
                <rect id="Rectangle-path" fill="#FFFFFF" transform="translate(31.029851, 4.432836) rotate(23.840000) translate(-31.029851, -4.432836) " x="25.7910448" y="4.02985075" width="10.4776119" height="1"></rect>
                <rect id="Rectangle-path" fill="#FFFFFF" transform="translate(28.611940, 6.044776) rotate(23.840000) translate(-28.611940, -6.044776) " x="24.9850746" y="5.64179104" width="7.25373134" height="1"></rect>
                <rect id="Rectangle-path" fill="#FFFFFF" transform="translate(49.567164, 13.298507) rotate(23.840000) translate(-49.567164, -13.298507) " x="46.7462687" y="12.8955224" width="5.64179104" height="1"></rect>
                <rect id="Rectangle-path" fill="#FFFFFF" transform="translate(49.970149, 14.910448) rotate(23.840000) translate(-49.970149, -14.910448) " x="47.5522388" y="14.5074627" width="4.8358209" height="1"></rect>
                <rect id="Rectangle-path" fill="#FFFFFF" transform="translate(49.567164, 14.910448) rotate(23.840000) translate(-49.567164, -14.910448) " x="46.7462687" y="14.5074627" width="5.64179104" height="1"></rect>
                <rect id="Rectangle-path" fill="#FFFFFF" transform="translate(49.970149, 16.522388) rotate(23.840000) translate(-49.970149, -16.522388) " x="48.358209" y="16.119403" width="3.2238806" height="1"></rect>
                <rect id="Rectangle-path" fill="#999999" transform="translate(28.611940, 11.686567) rotate(23.840000) translate(-28.611940, -11.686567) " x="23.3731343" y="11.2835821" width="10.4776119" height="1"></rect>
                <rect id="Rectangle-path" fill="#333333" transform="translate(27.402985, 13.298507) rotate(23.840000) translate(-27.402985, -13.298507) " x="23.3731343" y="12.8955224" width="8.05970149" height="1"></rect>
                <rect id="Rectangle-path" fill="#333333" transform="translate(33.850746, 16.522388) rotate(23.840000) translate(-33.850746, -16.522388) " x="31.4328358" y="16.119403" width="4.8358209" height="1"></rect>
                <rect id="Rectangle-path" fill="#333333" transform="translate(24.582090, 14.104478) rotate(23.840000) translate(-24.582090, -14.104478) " x="22.5671642" y="13.7014925" width="4.02985075" height="1"></rect>
                <rect id="Rectangle-path" fill="#333333" transform="translate(29.417910, 16.522388) rotate(23.840000) translate(-29.417910, -16.522388) " x="26.5970149" y="16.119403" width="5.64179104" height="1"></rect>
                <rect id="Rectangle-path" fill="#333333" transform="translate(35.865672, 18.940299) rotate(23.840000) translate(-35.865672, -18.940299) " x="33.0447761" y="18.5373134" width="5.64179104" height="1"></rect>
                <rect id="Rectangle-path" fill="#333333" transform="translate(22.567164, 14.910448) rotate(23.840000) translate(-22.567164, -14.910448) " x="21.761194" y="14.5074627" width="1.6119403" height="1"></rect>
                <rect id="Rectangle-path" fill="#333333" transform="translate(27.402985, 17.328358) rotate(23.840000) translate(-27.402985, -17.328358) " x="24.1791045" y="16.9253731" width="6.44776119" height="1"></rect>
                <rect id="Rectangle-path" fill="#333333" transform="translate(32.641791, 18.940299) rotate(23.840000) translate(-32.641791, -18.940299) " x="31.4328358" y="18.5373134" width="2.41791045" height="1"></rect>
                <rect id="Rectangle-path" fill="#333333" transform="translate(35.462687, 20.552239) rotate(23.840000) translate(-35.462687, -20.552239) " x="33.8507463" y="20.1492537" width="3.2238806" height="1"></rect>
                <rect id="Rectangle-path" fill="#333333" transform="translate(28.208955, 18.134328) rotate(23.840000) translate(-28.208955, -18.134328) " x="24.1791045" y="17.7313433" width="8.05970149" height="1"></rect>
                <rect id="Rectangle-path" fill="#333333" transform="translate(34.656716, 21.358209) rotate(23.840000) translate(-34.656716, -21.358209) " x="32.238806" y="20.9552239" width="4.8358209" height="1"></rect>
                <rect id="Rectangle-path" fill="#333333" transform="translate(22.164179, 15.716418) rotate(23.840000) translate(-22.164179, -15.716418) " x="20.9552239" y="15.3134328" width="2.41791045" height="1"></rect>
                <rect id="Rectangle-path" fill="#999999" transform="translate(23.776119, 22.164179) rotate(23.840000) translate(-23.776119, -22.164179) " x="18.5373134" y="21.761194" width="10.4776119" height="1"></rect>
                <rect id="Rectangle-path" fill="#333333" transform="translate(20.955224, 26.194030) rotate(23.840000) translate(-20.955224, -26.194030) " x="16.9253731" y="25.7910448" width="8.05970149" height="1"></rect>
                <rect id="Rectangle-path" fill="#333333" transform="translate(27.402985, 29.417910) rotate(23.840000) translate(-27.402985, -29.417910) " x="24.9850746" y="29.0149254" width="4.8358209" height="1"></rect>
                <rect id="Rectangle-path" fill="#333333" transform="translate(19.746269, 23.776119) rotate(23.840000) translate(-19.746269, -23.776119) " x="17.7313433" y="23.3731343" width="4.02985075" height="1"></rect>
                <rect id="Rectangle-path" fill="#333333" transform="translate(25.388060, 26.194030) rotate(23.840000) translate(-25.388060, -26.194030) " x="22.5671642" y="25.7910448" width="5.64179104" height="1"></rect>
                <rect id="Rectangle-path" fill="#333333" transform="translate(31.029851, 28.611940) rotate(23.840000) translate(-31.029851, -28.611940) " x="28.2089552" y="28.2089552" width="5.64179104" height="1"></rect>
                <rect id="Rectangle-path" fill="#333333" transform="translate(19.343284, 22.164179) rotate(23.840000) translate(-19.343284, -22.164179) " x="18.5373134" y="21.761194" width="1.6119403" height="1"></rect>
                <rect id="Rectangle-path" fill="#333333" transform="translate(24.179104, 24.582090) rotate(23.840000) translate(-24.179104, -24.582090) " x="20.9552239" y="24.1791045" width="6.44776119" height="1"></rect>
                <rect id="Rectangle-path" fill="#333333" transform="translate(28.611940, 26.194030) rotate(23.840000) translate(-28.611940, -26.194030) " x="27.4029851" y="25.7910448" width="2.41791045" height="1"></rect>
                <rect id="Rectangle-path" fill="#333333" transform="translate(23.373134, 28.611940) rotate(23.840000) translate(-23.373134, -28.611940) " x="19.3432836" y="28.2089552" width="8.05970149" height="1"></rect>
                <rect id="Rectangle-path" fill="#333333" transform="translate(29.820896, 31.835821) rotate(23.840000) translate(-29.820896, -31.835821) " x="27.4029851" y="31.4328358" width="4.8358209" height="1"></rect>
                <rect id="Rectangle-path" fill="#333333" transform="translate(18.134328, 26.194030) rotate(23.840000) translate(-18.134328, -26.194030) " x="16.9253731" y="25.7910448" width="2.41791045" height="1"></rect>
                <rect id="Rectangle-path" fill="#999999" transform="translate(19.746269, 32.641791) rotate(23.840000) translate(-19.746269, -32.641791) " x="14.5074627" y="32.238806" width="10.4776119" height="1"></rect>
                <rect id="Rectangle-path" fill="#333333" transform="translate(17.731343, 34.253731) rotate(23.840000) translate(-17.731343, -34.253731) " x="13.7014925" y="33.8507463" width="8.05970149" height="1"></rect>
                <rect id="Rectangle-path" fill="#333333" transform="translate(14.910448, 35.059701) rotate(23.840000) translate(-14.910448, -35.059701) " x="12.8955224" y="34.6567164" width="4.02985075" height="1"></rect>
                <rect id="Rectangle-path" fill="#333333" transform="translate(19.746269, 37.477612) rotate(23.840000) translate(-19.746269, -37.477612) " x="16.9253731" y="37.0746269" width="5.64179104" height="1"></rect>
                <rect id="Rectangle-path" fill="#333333" transform="translate(13.701493, 35.059701) rotate(23.840000) translate(-13.701493, -35.059701) " x="12.8955224" y="34.6567164" width="1.6119403" height="1"></rect>
                <rect id="Rectangle-path" fill="#333333" transform="translate(18.537313, 37.477612) rotate(23.840000) translate(-18.537313, -37.477612) " x="15.3134328" y="37.0746269" width="6.44776119" height="1"></rect>
                <rect id="Rectangle-path" fill="#333333" transform="translate(18.537313, 39.895522) rotate(23.840000) translate(-18.537313, -39.895522) " x="14.5074627" y="39.4925373" width="8.05970149" height="1"></rect>
                <rect id="Rectangle-path" fill="#333333" transform="translate(13.298507, 37.477612) rotate(23.840000) translate(-13.298507, -37.477612) " x="12.0895522" y="37.0746269" width="2.41791045" height="1"></rect>
                <rect id="Rectangle-path" fill="#999999" transform="translate(33.447761, 39.089552) rotate(23.840000) translate(-33.447761, -39.089552) " x="28.2089552" y="38.6865672" width="10.4776119" height="1"></rect>
                <rect id="Rectangle-path" fill="#333333" transform="translate(31.432836, 40.701493) rotate(23.840000) translate(-31.432836, -40.701493) " x="27.4029851" y="40.2985075" width="8.05970149" height="1"></rect>
                <rect id="Rectangle-path" fill="#333333" transform="translate(29.417910, 40.701493) rotate(23.840000) translate(-29.417910, -40.701493) " x="27.4029851" y="40.2985075" width="4.02985075" height="1"></rect>
                <rect id="Rectangle-path" fill="#333333" transform="translate(34.253731, 43.119403) rotate(23.840000) translate(-34.253731, -43.119403) " x="31.4328358" y="42.7164179" width="5.64179104" height="1"></rect>
                <rect id="Rectangle-path" fill="#333333" transform="translate(27.402985, 42.313433) rotate(23.840000) translate(-27.402985, -42.313433) " x="26.5970149" y="41.9104478" width="1.6119403" height="1"></rect>
                <rect id="Rectangle-path" fill="#333333" transform="translate(32.238806, 43.925373) rotate(23.840000) translate(-32.238806, -43.925373) " x="29.0149254" y="43.5223881" width="6.44776119" height="1"></rect>
                <rect id="Rectangle-path" fill="#333333" transform="translate(33.044776, 45.537313) rotate(23.840000) translate(-33.044776, -45.537313) " x="29.0149254" y="45.1343284" width="8.05970149" height="1"></rect>
                <rect id="Rectangle-path" fill="#333333" transform="translate(27.000000, 43.119403) rotate(23.840000) translate(-27.000000, -43.119403) " x="25.7910448" y="42.7164179" width="2.41791045" height="1"></rect>
                <polygon id="Shape" fill="#4A3379" points="54.8059701 16.9253731 50.7761194 14.8665112 52.0535506 11.8272578"></polygon>
            </g>
        </g>
    </g>
</svg>