<svg xmlns="http://www.w3.org/2000/svg" viewBox="0 0 242.97 188"><defs><style>.cls-1{fill:#f2f2f2;}.cls-2{fill:#c6148b;}.cls-3{fill:#fff;}.cls-4{fill:#999;}.cls-5{fill:#333;}.cls-6{fill:#61045f;}</style></defs><title>Resume</title><g id="Layer_2" data-name="Layer 2"><g id="Layer_1-2" data-name="Layer 1"><polygon class="cls-1" points="0 188 0 0.25 242.97 0.25 242.97 161.79 223.01 188 0 188"/><polygon class="cls-2" points="207.97 188 207.97 0 242.97 0 242.97 161.88 222.97 188 207.97 188"/><rect class="cls-3" x="199.99" y="37.02" width="61" height="6.95" transform="translate(270.99 -189.99) rotate(90)"/><rect class="cls-3" x="200.45" y="25.52" width="38" height="6.95" transform="translate(248.45 -190.45) rotate(90)"/><rect class="cls-3" x="216.53" y="154.95" width="32" height="2.11" transform="translate(388.53 -76.53) rotate(90)"/><rect class="cls-3" x="214.48" y="158.4" width="25.09" height="2.11" transform="translate(386.48 -67.57) rotate(90)"/><rect class="cls-3" x="206.82" y="156.24" width="29.41" height="2.11" transform="translate(378.82 -64.23) rotate(90)"/><rect class="cls-3" x="206.5" y="161.42" width="19.05" height="2.11" transform="translate(378.5 -53.55) rotate(90)"/><rect class="cls-4" x="160.99" y="42.02" width="61" height="6.95" transform="translate(236.99 -145.99) rotate(90)"/><rect class="cls-5" x="157.96" y="35.48" width="43.49" height="2.54" transform="translate(216.45 -142.96) rotate(90)"/><rect class="cls-5" x="166.72" y="75.81" width="25.96" height="2.54" transform="translate(256.78 -102.62) rotate(90)"/><rect class="cls-5" x="160.83" y="24.6" width="21.75" height="2.54" transform="translate(197.57 -145.83) rotate(90)"/><rect class="cls-5" x="154.86" y="56.52" width="33.67" height="2.54" transform="translate(229.49 -113.91) rotate(90)"/><rect class="cls-5" x="156.62" y="91.95" width="30.16" height="2.54" transform="translate(264.92 -78.48) rotate(90)"/><rect class="cls-5" x="158.71" y="18.99" width="10.52" height="2.54" transform="translate(184.23 -143.71) rotate(90)"/><rect class="cls-5" x="145.38" y="47.75" width="37.18" height="2.54" transform="translate(212.99 -114.95) rotate(90)"/><rect class="cls-5" x="158.01" y="76.51" width="11.93" height="2.54" transform="translate(241.75 -86.19) rotate(90)"/><rect class="cls-5" x="153.45" y="97.21" width="21.04" height="2.54" transform="translate(262.45 -65.49) rotate(90)"/><rect class="cls-5" x="134.77" y="52.77" width="43.49" height="2.54" transform="translate(210.55 -102.47) rotate(90)"/><rect class="cls-5" x="143.54" y="93.11" width="25.96" height="2.54" transform="translate(250.89 -62.13) rotate(90)"/><rect class="cls-5" x="149.34" y="20.85" width="14.06" height="2.81" transform="translate(178.63 -134.12) rotate(90)"/><rect class="cls-4" x="96.99" y="42.02" width="61" height="6.95" transform="translate(172.99 -81.99) rotate(90)"/><rect class="cls-5" x="78.96" y="35.48" width="43.49" height="2.54" transform="translate(137.45 -63.96) rotate(90)"/><rect class="cls-5" x="87.72" y="75.81" width="25.96" height="2.54" transform="translate(177.78 -23.62) rotate(90)"/><rect class="cls-5" x="97.83" y="24.6" width="21.75" height="2.54" transform="translate(134.57 -82.83) rotate(90)"/><rect class="cls-5" x="91.86" y="56.52" width="33.67" height="2.54" transform="translate(166.49 -50.91) rotate(90)"/><rect class="cls-5" x="93.62" y="91.95" width="30.16" height="2.54" transform="translate(201.92 -15.48) rotate(90)"/><rect class="cls-5" x="111.71" y="18.99" width="10.52" height="2.54" transform="translate(137.23 -96.71) rotate(90)"/><rect class="cls-5" x="98.38" y="47.75" width="37.18" height="2.54" transform="translate(165.99 -67.95) rotate(90)"/><rect class="cls-5" x="111.01" y="76.51" width="11.93" height="2.54" transform="translate(194.75 -39.19) rotate(90)"/><rect class="cls-5" x="71.77" y="52.77" width="43.49" height="2.54" transform="translate(147.55 -39.47) rotate(90)"/><rect class="cls-5" x="80.54" y="93.11" width="25.96" height="2.54" transform="translate(187.89 0.87) rotate(90)"/><rect class="cls-5" x="86.34" y="20.85" width="14.06" height="2.81" transform="translate(115.63 -71.12) rotate(90)"/><rect class="cls-4" x="33.99" y="41.02" width="61" height="6.95" transform="translate(108.99 -19.99) rotate(90)"/><rect class="cls-5" x="30.96" y="34.48" width="43.49" height="2.54" transform="translate(88.45 -16.96) rotate(90)"/><rect class="cls-5" x="33.83" y="23.6" width="21.75" height="2.54" transform="translate(69.57 -19.83) rotate(90)"/><rect class="cls-5" x="27.86" y="55.52" width="33.67" height="2.54" transform="translate(101.49 12.09) rotate(90)"/><rect class="cls-5" x="31.71" y="17.99" width="10.52" height="2.54" transform="translate(56.23 -17.71) rotate(90)"/><rect class="cls-5" x="18.38" y="46.75" width="37.18" height="2.54" transform="translate(84.99 11.05) rotate(90)"/><rect class="cls-5" x="7.77" y="51.77" width="43.49" height="2.54" transform="translate(82.55 23.53) rotate(90)"/><rect class="cls-5" x="22.34" y="19.85" width="14.06" height="2.81" transform="translate(50.63 -8.12) rotate(90)"/><rect class="cls-4" x="33.99" y="127.02" width="61" height="6.95" transform="translate(194.99 66.01) rotate(90)"/><rect class="cls-5" x="30.96" y="120.48" width="43.49" height="2.54" transform="translate(174.45 69.04) rotate(90)"/><rect class="cls-5" x="33.83" y="109.6" width="21.75" height="2.54" transform="translate(155.57 66.17) rotate(90)"/><rect class="cls-5" x="27.86" y="141.52" width="33.67" height="2.54" transform="translate(187.49 98.09) rotate(90)"/><rect class="cls-5" x="31.71" y="103.99" width="10.52" height="2.54" transform="translate(142.23 68.29) rotate(90)"/><rect class="cls-5" x="18.38" y="132.75" width="37.18" height="2.54" transform="translate(170.99 97.05) rotate(90)"/><rect class="cls-5" x="7.77" y="137.77" width="43.49" height="2.54" transform="translate(168.55 109.53) rotate(90)"/><rect class="cls-5" x="22.34" y="105.85" width="14.06" height="2.81" transform="translate(136.63 77.88) rotate(90)"/><polygon class="cls-6" points="242.97 162 222.97 188 222.97 162 242.97 162"/></g></g></svg>